PathFileType	4	(X/Y/Z)	../Python\running\Running04\task.trc
DataRate	CameraRate	NumFrames	NumMarkers	Units	OrigDataRate	OrigDataStartFrame	OrigNumFrames
200.000000	200.000000	6	30	mm	200.000000	56	226
Frame#	Time	C7			RBAK			CLAV			STRN			RASI			LASI			PE01			RTH2			RTH3			RHEE			RD5M			RTOE			LTH2			LTH3			LTB2			LTB3			LHEE			LTOE			LD5M			RTH1			LPSI			RTB2			PE03			RPSI			PE02			RTB1			RTB3			T10			LTH1			LTB1			
		X1	Y1	Z1	X2	Y2	Z2	X3	Y3	Z3	X4	Y4	Z4	X5	Y5	Z5	X6	Y6	Z6	X7	Y7	Z7	X8	Y8	Z8	X9	Y9	Z9	X10	Y10	Z10	X11	Y11	Z11	X12	Y12	Z12	X13	Y13	Z13	X14	Y14	Z14	X15	Y15	Z15	X16	Y16	Z16	X17	Y17	Z17	X18	Y18	Z18	X19	Y19	Z19	X20	Y20	Z20	X21	Y21	Z21	X22	Y22	Z22	X23	Y23	Z23	X24	Y24	Z24	X25	Y25	Z25	X26	Y26	Z26	X27	Y27	Z27	X28	Y28	Z28	X29	Y29	Z29	X30	Y30	Z30	

57	0.28	-542.001647949219	1324.041137695313	140.7144622802735	-598.1437988281252	1246.69970703125	247.3651275634767	-427.5144653320315	1215.9345703125	154.4549865722657	-399.1541137695315	1019.696716308594	165.8635864257813	-462.2326965332034	830.8845214843755	279.6959533691407	-480.2249450683596	828.2250976562505	51.82455062866214	-643.091247558594	937.8254394531255	192.8613891601564	-375.4468383789064	512.1939697265627	303.9903564453126	-377.3378906250001	572.6208496093752	317.6781311035157	-660.223327636719	143.1509094238282	228.4010620117189	-540.2451171875002	78.82937622070315	317.7597961425782	-503.6838989257815	66.97663879394534	273.2015075683595	-610.8332519531252	522.012390136719	38.46611785888673	-535.1893310546877	546.8680419921877	28.48645210266115	-749.920593261719	218.3560333251954	72.30142211914065	-701.7781982421877	221.9351654052736	79.33108520507815	-881.5977172851567	91.35121154785159	132.257553100586	-710.5501708984377	29.79096794128419	154.8039245605469	-745.2961425781252	16.09635734558106	97.90992736816412	-427.2740478515627	569.053405761719	324.5778198242189	-660.849060058594	906.2533569335942	150.6851348876954	-483.4143371582034	309.8016967773439	304.4586181640626	-675.3283691406252	885.5424194335942	165.4674224853516	-654.1110839843752	903.3735961914067	235.8357391357423	-673.9669189453127	883.1543579101567	216.0168762207032	-423.0043029785159	317.9266662597657	293.1041870117189	-479.8335266113284	260.5833435058595	290.0834960937501	-613.760681152344	1038.890014648438	174.0772552490235	-578.0872192382815	573.0224609375002	22.78564071655274	-702.1345825195315	279.5121459960939	55.39002227783206	
58	0.285	-526.504089355469	1327.205810546875	141.0577087402344	-583.9782714843752	1249.717651367188	245.5574951171876	-411.7603149414065	1219.925170898438	156.3435516357422	-382.9514160156251	1023.667175292969	166.8403930664063	-445.8186950683596	834.9846191406255	279.2191162109376	-463.6352539062502	830.6464233398442	51.47934722900393	-626.6755371093752	940.8928222656255	190.8985443115235	-355.9027404785157	518.216979980469	302.3932495117189	-358.814910888672	578.5740356445315	316.3918762207032	-626.9117431640627	134.9066925048829	229.8921051025392	-503.7579650878909	75.49971771240237	318.434051513672	-467.0850219726565	65.09977722167972	273.563934326172	-602.3789672851565	525.8521118164065	38.50468063354494	-526.0089111328127	549.2857666015627	28.69773674011232	-746.9761962890627	223.4598846435548	72.67594909667972	-698.6218872070315	226.645477294922	78.98023223876956	-878.1453247070317	97.76376342773443	132.2327117919922	-710.084655761719	29.57319450378419	154.6486358642579	-745.2684326171877	16.45945739746094	98.06359100341803	-408.6357116699221	574.1086425781252	323.5827941894532	-644.397888183594	908.906127929688	149.2108154296876	-457.4329528808596	309.6580505371095	304.5059509277345	-658.9688110351565	888.1331176757817	164.3795013427735	-638.0132446289065	906.8229980468755	234.3261871337892	-657.7034912109377	886.6516113281255	214.9964904785157	-397.6230468750002	320.5020446777345	293.069305419922	-451.7207641601565	260.6461486816407	290.4404296875001	-597.5443115234377	1041.85107421875	171.7724761962891	-568.423278808594	576.2352294921877	22.97516632080079	-698.9544067382815	284.3840942382814	55.67473602294925	
59	0.29	-510.9919433593752	1330.444946289063	141.4155883789063	-569.7482910156252	1252.795166015625	243.7572784423829	-396.0144348144534	1224.031372070313	158.2437286376954	-366.7061767578126	1027.74072265625	167.8106994628907	-429.2944335937502	839.1594848632817	278.6504211425782	-446.8841552734377	833.243286132813	51.08755874633792	-610.0876464843752	944.0045776367192	188.9936981201172	-336.7946166992189	524.0170898437502	300.7633056640626	-340.5497436523439	584.3038330078127	315.0259399414064	-593.2244873046877	127.046241760254	231.2368469238282	-467.1594238281252	72.31871032714847	318.8414611816407	-430.4653320312502	63.38658142089847	273.6137695312501	-593.3276367187502	529.922058105469	38.5134963989258	-516.244567871094	551.9582519531252	29.13021850585939	-743.6608886718752	228.9215393066407	73.087272644043	-695.1124267578127	231.7799377441407	78.56647491455081	-873.9534301757817	104.482048034668	132.3001403808594	-709.628112792969	29.30345153808595	154.4831542968751	-745.1362304687502	16.91528892517091	98.20928955078131	-390.2677001953127	579.0932617187502	322.4856262207032	-627.823425292969	911.6472778320317	147.7754974365235	-431.5303039550784	309.4822998046876	304.5375366210939	-642.5003051757815	890.807495117188	163.3633270263672	-621.7092285156252	910.3335571289067	232.8777618408204	-641.2458496093752	890.2039184570317	214.0315399169923	-372.4535522460939	323.0450744628907	293.0133666992189	-423.6573181152346	260.8071594238282	290.7442016601564	-581.254333496094	1044.8857421875	169.4148559570313	-558.2092285156252	579.6731567382815	23.21347236633301	-695.5397949218752	289.710418701172	56.02923202514651	
60	0.295	-495.4602050781252	1333.7314453125	141.7875518798829	-555.4462890625002	1255.9033203125	241.9749450683595	-380.2781982421876	1228.219482421875	160.1485595703126	-350.4217529296876	1031.892333984375	168.7783508300782	-412.6676025390627	843.3787231445317	277.9842224121095	-429.9924316406252	835.9653320312505	50.64030075073245	-593.326599121094	947.1411132812505	187.1532592773438	-318.1341857910157	529.538269042969	299.1072082519532	-322.5341186523439	589.7611083984377	313.5825195312501	-559.190856933594	119.6275939941407	232.4106750488282	-430.4847412109377	69.26930236816409	318.9757690429689	-393.8559570312502	61.81384658813479	273.3536682128907	-583.7458496093752	534.1970214843752	38.52171707153322	-505.9588623046877	554.7884521484377	29.77564811706544	-739.9216308593752	234.6874084472657	73.5459899902344	-691.2012329101565	237.2927398681642	78.0989685058594	-868.928344726563	111.4595108032227	132.4948120117188	-709.1921997070315	28.97488975524904	154.3230743408204	-744.8794555664065	17.49492835998536	98.37313842773443	-372.1686096191407	583.974304199219	321.2807617187501	-611.1276855468752	914.4631958007817	146.3821563720704	-405.7020568847659	309.263885498047	304.558319091797	-625.9255371093752	893.5557250976567	162.4161529541016	-605.1995239257815	913.8782348632817	231.4894866943361	-624.5976562500002	893.7915039062505	213.1177673339845	-347.4953002929689	325.5325317382814	292.9286499023439	-395.6524963378909	261.0578002929689	290.985809326172	-564.8918457031252	1047.969970703125	167.0194549560547	-547.477966308594	583.2869873046877	23.50154685974122	-691.846862792969	295.4476623535157	56.47369003295901	
61	0.3	-479.9044189453127	1337.037719726563	142.1733551025391	-541.0654296875002	1259.0126953125	240.220428466797	-364.5527343750001	1232.455932617188	162.0506439208985	-334.1013183593751	1036.098266601563	169.7463684082032	-395.9478454589846	847.6118164062505	277.2180175781251	-412.9814147949221	838.7595825195317	50.13235855102542	-576.3943481445315	950.2846069335942	185.3799133300782	-299.9288940429689	534.732849121094	297.4361877441407	-304.7645568847657	594.9045410156252	312.064178466797	-524.847839355469	112.7052993774415	233.3867492675782	-393.772399902344	66.34214782714847	318.835174560547	-357.2881164550782	60.36589050292972	272.7952270507814	-573.7217407226565	538.6697387695315	38.56885910034181	-495.2470703125002	557.706726074219	30.59289169311525	-735.7054443359377	240.697235107422	74.05963134765628	-686.8385009765627	243.1295776367189	77.59034729003909	-862.9890136718755	118.6423873901368	132.8341064453126	-708.7725219726565	28.59133529663087	154.1838378906251	-744.4642333984377	18.22888755798341	98.58256530761724	-354.3399353027345	588.720397949219	319.9668884277345	-594.3133544921877	917.3405151367192	145.0311889648438	-379.9485168457032	308.9973754882814	304.570770263672	-609.2471923828127	896.3674926757817	161.5320281982422	-588.4907226562502	917.4318847656255	230.1573638916017	-607.7663574218752	897.396606445313	212.2487030029298	-322.7515563964845	327.9473266601564	292.8082275390626	-367.7196655273439	261.3925170898439	291.1571350097657	-548.458923339844	1051.079467773438	164.6024475097657	-536.293395996094	587.0424804687502	23.8385410308838	-687.8248291015627	301.5421447753907	57.02689361572268	
62	0.305	-464.3208007812502	1340.336059570313	142.5728912353516	-526.5997314453127	1262.09423828125	238.5029449462892	-348.8387145996095	1236.70654296875	163.9423522949219	-317.7478942871095	1040.336059570313	170.7167968750001	-379.1464843750001	851.8281250000005	276.3521728515626	-395.8725585937502	841.572387695313	49.56253433227542	-559.295837402344	953.419311523438	183.6732940673829	-282.1809387207032	539.561950683594	295.7679443359376	-287.242645263672	599.7012939453127	310.4750061035157	-490.2411193847659	106.3294067382813	234.1381378173829	-357.0638732910157	63.5384216308594	318.420867919922	-320.793670654297	59.03831863403323	271.9558410644532	-563.3501586914065	543.3469848632815	38.69979095458986	-484.221618652344	560.6760253906252	31.5133743286133	-730.9614257812502	246.8858795166017	74.63117218017581	-681.975524902344	249.2285614013673	77.05638122558597	-856.078002929688	125.9719619750977	133.3146514892579	-708.343688964844	28.172420501709	154.0806732177735	-743.8395996093752	19.14685440063477	98.86269378662115	-336.7858276367189	593.301208496094	318.5482482910157	-577.3837890625002	920.2661743164067	143.720932006836	-354.2759399414064	308.6828002929689	304.5747070312501	-592.4681396484377	899.2322387695317	160.7028198242188	-571.5948486328127	920.9719848632817	228.8752441406251	-590.762878417969	901.003540039063	211.4164886474611	-298.2299804687501	330.2786865234376	292.6469726562501	-339.8772583007814	261.8094177246095	291.2518615722657	-531.958435058594	1054.189819335938	162.1808624267579	-524.7398071289065	590.9211425781252	24.22129440307619	-683.4170532226565	307.930389404297	57.70343780517581	
